HIERARCHY
ROOT Hips
{
	OFFSET 0.000000 0.000000 0.000000
	CHANNELS 6 Xposition Yposition Zposition Zrotation Yrotation Xrotation 
	JOINT LHipJoint
	{
		OFFSET 0.000000 0.000000 0.000000
		CHANNELS 3 Zrotation Yrotation Xrotation
		JOINT LeftUpLeg
		{
			OFFSET 1.363060 -1.794630 0.839290
			CHANNELS 3 Zrotation Yrotation Xrotation
			JOINT LeftLeg
			{
				OFFSET 2.448110 -6.726130 0.000000
				CHANNELS 3 Zrotation Yrotation Xrotation
				JOINT LeftFoot
				{
					OFFSET 2.562200 -7.039590 0.000000
					CHANNELS 3 Zrotation Yrotation Xrotation
					JOINT LeftToeBase
					{
						OFFSET 0.157640 -0.433110 2.322550
						CHANNELS 3 Zrotation Yrotation Xrotation
						End Site
						{
							OFFSET 0.000000 0.000000 0.000000
						}
					}
				}
			}
		}
	}
	JOINT RHipJoint
	{
		OFFSET 0.000000 0.000000 0.000000
		CHANNELS 3 Zrotation Yrotation Xrotation
		JOINT RightUpLeg
		{
			OFFSET -1.305520 -1.794630 0.839290
			CHANNELS 3 Zrotation Yrotation Xrotation
			JOINT RightLeg
			{
				OFFSET -2.542530 -6.985550 0.000000
				CHANNELS 3 Zrotation Yrotation Xrotation
				JOINT RightFoot
				{
					OFFSET -2.568260 -7.056230 0.000000
					CHANNELS 3 Zrotation Yrotation Xrotation
					JOINT RightToeBase
					{
						OFFSET -0.164730 -0.452590 2.363150
						CHANNELS 3 Zrotation Yrotation Xrotation
						End Site
						{
							OFFSET 0.000000 0.000000 0.000000
						}
					}
				}
			}
		}
	}
	JOINT LowerBack
	{
		OFFSET 0.000000 0.000000 0.000000
		CHANNELS 3 Zrotation Yrotation Xrotation
		JOINT Spine
		{
			OFFSET 0.028270 2.035590 -0.193380
			CHANNELS 3 Zrotation Yrotation Xrotation
			JOINT Spine1
			{
				OFFSET 0.056720 2.048850 -0.042750
				CHANNELS 3 Zrotation Yrotation Xrotation
				JOINT Neck
				{
					OFFSET 0.000000 0.000000 0.000000
					CHANNELS 3 Zrotation Yrotation Xrotation
					JOINT Neck1
					{
						OFFSET -0.054170 1.746240 0.172020
						CHANNELS 3 Zrotation Yrotation Xrotation
						JOINT Head
						{
							OFFSET 0.104070 1.761360 -0.123970
							CHANNELS 3 Zrotation Yrotation Xrotation
							End Site
							{
								OFFSET 0.000000 0.000000 0.000000
							}
						}
					}
				}
				JOINT LeftShoulder
				{
					OFFSET 0.000000 0.000000 0.000000
					CHANNELS 3 Zrotation Yrotation Xrotation
					JOINT LeftArm
					{
						OFFSET 3.362410 1.200890 -0.311210
						CHANNELS 3 Zrotation Yrotation Xrotation
						JOINT LeftForeArm
						{
							OFFSET 4.983000 -0.000000 -0.000000
							CHANNELS 3 Zrotation Yrotation Xrotation
							JOINT LeftHand
							{
								OFFSET 3.483560 -0.000000 -0.000000
								CHANNELS 3 Zrotation Yrotation Xrotation
								JOINT LeftFingerBase
								{
									OFFSET 0.000000 0.000000 0.000000
									CHANNELS 3 Zrotation Yrotation Xrotation
									JOINT LeftHandIndex1
									{
										OFFSET 0.715260 -0.000000 -0.000000
										CHANNELS 3 Zrotation Yrotation Xrotation
										End Site
										{
											OFFSET 0.000000 0.000000 0.000000
										}
									}
								}
								JOINT LThumb
								{
									OFFSET 0.000000 0.000000 0.000000
									CHANNELS 3 Zrotation Yrotation Xrotation
									End Site
									{
										OFFSET 0.000000 0.000000 0.000000
									}
								}
							}
						}
					}
				}
				JOINT RightShoulder
				{
					OFFSET 0.000000 0.000000 0.000000
					CHANNELS 3 Zrotation Yrotation Xrotation
					JOINT RightArm
					{
						OFFSET -3.136600 1.374050 -0.404650
						CHANNELS 3 Zrotation Yrotation Xrotation
						JOINT RightForeArm
						{
							OFFSET -5.241900 -0.000000 -0.000000
							CHANNELS 3 Zrotation Yrotation Xrotation
							JOINT RightHand
							{
								OFFSET -3.444170 -0.000000 -0.000000
								CHANNELS 3 Zrotation Yrotation Xrotation
								JOINT RightFingerBase
								{
									OFFSET 0.000000 0.000000 0.000000
									CHANNELS 3 Zrotation Yrotation Xrotation
									JOINT RightHandIndex1
									{
										OFFSET -0.622530 -0.000000 -0.000000
										CHANNELS 3 Zrotation Yrotation Xrotation
										End Site
										{
											OFFSET 0.000000 0.000000 0.000000
										}
									}
								}
								JOINT RThumb
								{
									OFFSET 0.000000 0.000000 0.000000
									CHANNELS 3 Zrotation Yrotation Xrotation
									End Site
									{
										OFFSET 0.000000 0.000000 0.000000
									}
								}
							}
						}
					}
				}
			}
		}
	}
}
MOTION
Frames: 11
Frame Time: 0.008333
6.539490 16.892141 -5.209393 -172.804398 44.969698 -174.832776 -8.909717 2.065796 0.105971 -20.281502 21.441038 -31.564004 -2.616007 0.126762 20.867819 3.371783 16.929966 -14.700196 178.019100 -0.000000 -4.849000 11.096252 -4.783991 -0.882740 -2.338198 -18.455138 10.021261 -0.412122 -2.201955 27.309662 -1.021740 1.728196 31.076320 1.483500 -0.000000 -95.668500 -3.331417 1.213704 -1.997301 -1.477187 1.333072 -2.891127 -5.848061 1.308699 1.995664 9.091988 -10.781501 -10.648334 -1.814685 -0.106242 -0.800058 0.000000 0.000000 0.000000 -2.824561 26.727360 1.133187 -62.310468 28.340885 -20.656895 -4.823866 -5.378315 -0.005604 3.466524 3.157657 0.102840 -0.180733 -0.077368 0.000000 0.000000 0.000000 0.000000 0.000000 0.000000 0.000000 10.108781 -4.174372 0.359586 44.752614 15.256045 6.346525 1.642347 48.400652 0.012123 2.615787 4.481588 0.106077 0.029996 -0.185359 -0.000000 0.000000 0.000000 0.000000 0.000000 0.000000 0.000000 
6.621386 16.889771 -5.336606 -173.017254 44.389670 -174.985339 -8.878625 2.154091 0.077779 -20.392527 21.385282 -31.247591 -2.636956 0.187961 21.442592 3.265686 16.396362 -14.684331 178.057100 -0.000000 -4.976400 11.279980 -4.690622 -0.885648 -2.670853 -18.620532 8.983596 -0.562609 -2.219600 29.552335 -1.235366 1.429224 33.138969 1.446000 -0.000000 -94.264600 -3.644614 1.061264 -1.936730 -1.540418 1.202667 -2.887472 -5.875822 1.178549 1.973550 9.272534 -10.886321 -10.730820 -1.829575 -0.106058 -0.824554 0.000000 0.000000 0.000000 -2.714846 26.462639 1.202505 -62.699468 27.769563 -20.438568 -4.816113 -5.799386 -0.006586 3.154386 3.368750 0.100038 -0.177311 -0.075660 0.000000 0.000000 0.000000 0.000000 0.000000 0.000000 0.000000 10.323304 -4.269344 0.346248 45.519790 14.729591 6.562809 1.660952 48.759279 0.012458 2.733982 4.438698 0.109890 0.030199 -0.183946 -0.000000 0.000000 0.000000 0.000000 0.000000 0.000000 0.000000 
6.699770 16.886676 -5.460822 -173.244111 43.733899 -175.145471 -8.846613 2.230226 0.055316 -20.479155 21.188727 -30.874495 -2.646645 0.246091 22.033530 3.181911 15.944220 -14.765841 178.059499 -0.000000 -5.016400 11.455913 -4.571413 -0.915628 -2.942779 -18.791235 7.889145 -0.684423 -2.232560 31.897919 -1.454412 0.829102 34.909971 1.181900 0.000000 -91.919800 -3.959798 0.898668 -1.835755 -1.602331 1.063206 -2.876453 -5.899508 1.039698 1.947718 9.440389 -11.000268 -10.815175 -1.844571 -0.105758 -0.850041 0.000000 0.000000 0.000000 -2.587089 26.129575 1.279866 -63.140060 27.116816 -20.146085 -4.803666 -6.285799 -0.007531 2.841790 3.583125 0.096138 -0.173649 -0.073667 0.000000 0.000000 0.000000 0.000000 0.000000 0.000000 0.000000 10.521364 -4.380731 0.336278 46.325551 14.168053 6.724373 1.679577 49.088802 0.012716 2.813090 4.396353 0.112004 0.030913 -0.182789 -0.000000 0.000000 0.000000 0.000000 0.000000 0.000000 0.000000 
6.774579 16.882848 -5.582325 -173.472780 43.016247 -175.304599 -8.815206 2.294228 0.037889 -20.540082 20.871800 -30.441483 -2.645709 0.299794 22.622439 3.121470 15.583834 -14.941021 178.028000 -0.000000 -4.964500 11.618616 -4.433397 -0.971019 -3.143718 -18.955080 6.742081 -0.778361 -2.250253 34.321173 -1.668905 -0.093174 36.270141 0.662200 -0.000000 -88.916400 -4.264417 0.731398 -1.699507 -1.660912 0.919020 -2.858681 -5.919922 0.896518 1.919612 9.593497 -11.126322 -10.898452 -1.859589 -0.105381 -0.875627 0.000000 0.000000 0.000000 -2.447600 25.738334 1.361233 -63.619133 26.386279 -19.751774 -4.785942 -6.855001 -0.008411 2.529638 3.797669 0.091042 -0.169746 -0.071501 0.000000 0.000000 0.000000 0.000000 0.000000 0.000000 0.000000 10.703012 -4.511712 0.329458 47.160707 13.581683 6.843670 1.698475 49.380062 0.012909 2.857040 4.361986 0.112819 0.032067 -0.181853 -0.000000 0.000000 0.000000 0.000000 0.000000 0.000000 0.000000 
6.845811 16.878537 -5.701621 -173.691772 42.255061 -175.452731 -8.786291 2.346883 0.024325 -20.576158 20.465224 -29.952537 -2.636241 0.347932 23.188731 3.082855 15.313031 -15.199295 177.966599 0.000000 -4.821800 11.763498 -4.284825 -1.047194 -3.262971 -19.093504 5.540122 -0.849986 -2.282137 36.801098 -1.870172 -1.319975 37.111904 -0.102100 -0.000001 -85.429700 -4.544831 0.565171 -1.536988 -1.714001 0.774576 -2.835710 -5.938255 0.753434 1.890266 9.729110 -11.262132 -10.976176 -1.874997 -0.105040 -0.899934 0.000000 0.000000 0.000000 -2.308041 25.301966 1.441980 -64.119640 25.586451 -19.225422 -4.762494 -7.527580 -0.009213 2.216639 4.010736 0.084647 -0.165589 -0.069309 0.000000 0.000000 0.000000 0.000000 0.000000 0.000000 0.000000 10.867959 -4.659488 0.325115 48.017983 12.975839 6.929194 1.718238 49.624946 0.013059 2.876198 4.339891 0.113035 0.033527 -0.181045 -0.000000 0.000000 0.000000 0.000000 0.000000 0.000000 0.000000 
6.913493 16.874048 -5.819293 -173.891359 41.471235 -175.580546 -8.761877 2.389674 0.013280 -20.590513 20.005662 -29.416601 -2.621286 0.389544 23.711014 3.062445 15.118748 -15.524421 177.880900 0.000001 -4.591100 11.887451 -4.133790 -1.136876 -3.292311 -19.184428 4.276564 -0.907772 -2.335579 39.316455 -2.051397 -2.789599 37.355184 -1.052700 -0.000001 -81.594300 -4.788534 0.405083 -1.360440 -1.759694 0.633831 -2.809778 -5.956004 0.614298 1.860704 9.844681 -11.402259 -11.043241 -1.891542 -0.104893 -0.921366 0.000000 0.000000 0.000000 -2.183403 24.836520 1.517133 -64.621097 24.726110 -18.541824 -4.732940 -8.321117 -0.009918 1.901206 4.218991 0.077057 -0.161165 -0.067227 0.000000 0.000000 0.000000 0.000000 0.000000 0.000000 0.000000 11.016989 -4.817919 0.322159 48.890765 12.353614 6.987268 1.739735 49.814610 0.013193 2.884996 4.331810 0.113051 0.035131 -0.180224 -0.000000 0.000000 0.000000 0.000000 0.000000 0.000000 0.000000 
6.977703 16.869800 -5.935976 -174.063843 40.686144 -175.678362 -8.744249 2.424022 0.002755 -20.586206 19.532687 -28.848191 -2.604422 0.423963 24.170432 3.054941 14.978586 -15.897126 177.778100 0.000000 -4.281000 11.988343 -3.986445 -1.229554 -3.220018 -19.197310 2.949054 -0.960625 -2.412644 41.823685 -2.210893 -4.431303 36.992764 -2.112300 -0.000000 -77.972701 -4.984699 0.255065 -1.183854 -1.796266 0.499792 -2.782969 -5.974422 0.482024 1.833854 9.939300 -11.547286 -11.096578 -1.909698 -0.105052 -0.938847 0.000000 0.000000 0.000000 -2.090721 24.363678 1.581229 -65.100135 23.808267 -17.684119 -4.696873 -9.244478 -0.010507 1.583532 4.415936 0.067971 -0.156478 -0.065350 0.000000 0.000000 0.000000 0.000000 0.000000 0.000000 0.000000 11.153981 -4.987863 0.319327 49.769354 11.731862 7.032567 1.764144 49.934086 0.013329 2.894440 4.338306 0.113566 0.036781 -0.179223 -0.000000 0.000000 0.000000 0.000000 0.000000 0.000000 0.000000 
7.038593 16.866301 -6.052296 -174.205485 39.919837 -175.739987 -8.735448 2.451813 -0.008749 -20.567037 19.083001 -28.261585 -2.589123 0.450593 24.550107 3.054341 14.866209 -16.296146 177.666500 -0.000001 -3.899900 12.065675 -3.847892 -1.314979 -3.043761 -19.108028 1.551732 -1.015518 -2.513458 44.297132 -2.345001 -6.127801 36.022005 -3.166100 -0.000001 -74.539201 -5.125507 0.118075 -1.021275 -1.822526 0.374777 -2.757897 -5.994804 0.358762 1.810789 10.010919 -11.689099 -11.131381 -1.930418 -0.105699 -0.950820 0.000000 0.000000 0.000000 -2.045794 23.900705 1.630007 -65.534639 22.840466 -16.647020 -4.654006 -10.301843 -0.010954 1.265794 4.592418 0.057490 -0.151550 -0.063734 0.000000 0.000000 0.000000 0.000000 0.000000 0.000000 0.000000 11.280120 -5.160757 0.314924 50.649756 11.111598 7.065520 1.792594 49.974610 0.013497 2.920376 4.354971 0.114879 0.038325 -0.177854 -0.000000 0.000000 0.000000 0.000000 0.000000 0.000000 0.000000 
7.096276 16.864035 -6.168777 -174.314737 39.188172 -175.761217 -8.737429 2.474531 -0.022833 -20.535238 18.687380 -27.670288 -2.578297 0.469080 24.837791 3.054398 14.753681 -16.700163 177.555100 -0.000000 -3.459700 12.119664 -3.720673 -1.382795 -2.763278 -18.892916 0.086848 -1.076448 -2.633713 46.695636 -2.453227 -7.780234 34.496676 -4.115900 0.000000 -71.493500 -5.206075 -0.004342 -0.884929 -1.837690 0.259972 -2.736541 -6.018099 0.245581 1.793474 10.058678 -11.823803 -11.144609 -1.954413 -0.106966 -0.956246 0.000000 0.000000 0.000000 -2.062239 23.465193 1.659799 -65.904333 21.824280 -15.437356 -4.603990 -11.487042 -0.011232 0.954148 4.735549 0.046010 -0.146421 -0.062369 0.000000 0.000000 0.000000 0.000000 0.000000 0.000000 0.000000 11.398195 -5.333153 0.307212 51.527283 10.501803 7.089665 1.826194 49.924931 0.013702 2.973516 4.376179 0.117491 0.039677 -0.175943 -0.000000 0.000000 0.000000 0.000000 0.000000 0.000000 0.000000 
7.150881 16.863451 -6.285820 -174.392823 38.502551 -175.741398 -8.751692 2.493394 -0.040638 -20.491942 18.367916 -27.084892 -2.574010 0.479253 25.025796 3.049487 14.615964 -17.089418 177.452900 -0.000001 -2.972000 12.151224 -3.605498 -1.424419 -2.385410 -18.535828 -1.437030 -1.143976 -2.766915 48.978028 -2.535614 -9.303358 32.494856 -4.883600 0.000000 -68.900700 -5.224491 -0.111754 -0.784312 -1.841442 0.155681 -2.720607 -6.044954 0.142666 1.782719 10.081446 -11.943641 -11.133027 -1.982485 -0.108988 -0.954095 0.000000 0.000000 0.000000 -2.147805 23.069402 1.668645 -66.194474 20.760782 -14.075861 -4.546593 -12.785112 -0.011313 0.659321 4.830408 0.034136 -0.141159 -0.061177 0.000000 0.000000 0.000000 0.000000 0.000000 0.000000 0.000000 11.509238 -5.497639 0.294330 52.400640 9.901036 7.098917 1.865683 49.779194 0.013948 3.063081 4.393877 0.121399 0.040754 -0.173339 -0.000000 0.000000 0.000000 0.000000 0.000000 0.000000 0.000000 
7.202526 16.864961 -6.403665 -174.442090 37.867705 -175.682436 -8.779264 2.509126 -0.063048 -20.436767 18.135298 -26.510021 -2.577172 0.481190 25.111154 3.035177 14.434065 -17.446740 177.367601 -0.000000 -2.449700 12.161615 -3.501142 -1.434181 -1.922967 -18.029425 -3.003171 -1.215423 -2.905072 51.100252 -2.593656 -10.640748 30.121701 -5.426700 0.000000 -66.814400 -5.181914 -0.204912 -0.724058 -1.833884 0.061258 -2.710504 -6.075323 0.049370 1.780271 10.079749 -12.051775 -11.096383 -2.014551 -0.111772 -0.944235 0.000000 0.000000 0.000000 -2.306838 22.721658 1.655127 -66.396054 19.648260 -12.590720 -4.481741 -14.177100 -0.011172 0.394624 4.863002 0.022767 -0.135854 -0.060051 0.000000 0.000000 0.000000 0.000000 0.000000 0.000000 0.000000 11.615569 -5.659204 0.275141 53.266160 9.322092 7.095216 1.911780 49.528119 0.014219 3.188916 4.400272 0.126405 0.041600 -0.169938 -0.000000 0.000000 0.000000 0.000000 0.000000 0.000000 0.000000 
